<svg width="302" height="229" viewBox="0 0 302 229" fill="none" xmlns="http://www.w3.org/2000/svg">
<path fill-rule="evenodd" clip-rule="evenodd" d="M112.559 183L62.5 229H117L144.75 203.5L172.5 178L301.5 229L202.5 150.116L82.5 54.5L143 42L101.5 26.5L72.5 3.00001L19.5 1.1148e-05L0 97.5L62.5 183H112.559ZM131.159 158.898H193.998L119.441 98.4749L62.5 73.9749L57.6 98.4749L131.159 158.898ZM130.464 183L92.6961 217.25H112.559L149.5 183H130.464ZM71.5 26.5C71.5 31.4706 67.4706 35.5 62.5 35.5C57.5294 35.5 53.5 31.4706 53.5 26.5C53.5 21.5294 57.5294 17.5 62.5 17.5C67.4706 17.5 71.5 21.5294 71.5 26.5Z" fill="#2563EB"/>
</svg>
