<?xml version="1.0" encoding="UTF-8"?>
<svg id="reconstructed" xmlns="http://www.w3.org/2000/svg" viewBox="0 0 1000 1000">
  <defs>
    <style>
      .cls-1 {
        fill: #23282d;
      }
    </style>
  </defs>
  <path class="cls-1" d="M671.41,295.72l91.21,157.97-31.68,179.64-139.73,117.25h-182.41l-139.73-117.25-31.68-179.64,91.21-157.97,171.41-62.39,171.41,62.39ZM25.34,453.69l44.46,252.16c4.4,24.93,17.43,47.51,36.82,63.78l196.15,164.59c19.39,16.27,43.89,25.19,69.2,25.19h256.05c25.31,0,49.81-8.92,69.2-25.19l196.15-164.59c19.39-16.27,32.43-38.85,36.82-63.78l44.46-252.16c4.4-24.93-.13-50.6-12.79-72.52l-128.03-221.75c-12.66-21.92-32.63-38.68-56.41-47.34l-240.61-87.57c-23.78-8.66-49.86-8.66-73.64,0l-240.61,87.57c-23.78,8.66-43.76,25.42-56.41,47.34L38.13,381.17c-12.66,21.92-17.18,47.6-12.79,72.52Z"/>
</svg>