<?xml version="1.0" encoding="UTF-8"?>
<svg id="Layer_1" xmlns="http://www.w3.org/2000/svg" version="1.1" viewBox="0 0 800.1 173">
  <!-- Generator: Adobe Illustrator 29.8.1, SVG Export Plug-In . SVG Version: 2.1.1 Build 2)  -->
  <defs>
    <style>
      .st0 {
        fill: #23282d;
      }
    </style>
  </defs>
  <path class="st0" d="M494.1,136.2c-.6-.6-1.4-.9-2.2-.9h-62.7V13.7c0-.8-.3-1.6-.9-2.2l-4.7-4.7c-.6-.6-1.4-.9-2.2-.9h-24.2c-.8,0-1.6.3-2.2.9l-4.7,4.7c-.6.6-.9,1.4-.9,2.2v151.5c0,.8.3,1.6.9,2.2l4.7,4.7c.6.6,1.4.9,2.2.9h94.6c.8,0,1.6-.3,2.2-.9l4.7-4.7c.6-.6.9-1.4.9-2.2v-22.1c0-.8-.3-1.6-.9-2.2l-4.6-4.7Z"/>
  <path class="st0" d="M794.5,136.2c-.6-.6-1.4-.9-2.2-.9h-27.5V43.5h27.5c.8,0,1.6-.3,2.2-.9l4.7-4.7c.6-.6.9-1.4.9-2.2V13.6c0-.8-.3-1.6-.9-2.2l-4.7-4.7c-.6-.6-1.4-.9-2.2-.9h-94.6c-.8,0-1.6.3-2.2.9l-4.7,4.7c-.6.6-.9,1.4-.9,2.2v22.1c0,.8.3,1.6.9,2.2l4.7,4.7c.6.6,1.4.9,2.2.9h27.5v91.8h-27.5c-.8,0-1.6.3-2.2.9l-4.7,4.7c-.6.6-.9,1.4-.9,2.2v22.1c0,.8.3,1.6.9,2.2l4.7,4.7c.6.6,1.4.9,2.2.9h94.6c.8,0,1.6-.3,2.2-.9l4.7-4.7c.6-.6.9-1.4.9-2.2v-22.1c0-.8-.3-1.6-.9-2.2l-4.7-4.7Z"/>
  <path class="st0" d="M143.7,6.8c-.6-.6-1.4-.9-2.2-.9h-24.2c-.8,0-1.6.3-2.2.9l-4.7,4.7c-.6.6-.9,1.4-.9,2.2v52.2H39.8V13.7c0-.8-.3-1.6-.9-2.2l-4.7-4.7c-.6-.6-1.4-.9-2.2-.9H7.8c-.8,0-1.6.3-2.2.9L.9,11.5c-.6.6-.9,1.4-.9,2.2v151.5c0,.8.3,1.6.9,2.2l4.7,4.7c.6.6,1.4.9,2.2.9h24.3c.8,0,1.6-.3,2.2-.9l4.7-4.7c.6-.6.9-1.4.9-2.2v-61.7h69.7v61.7c0,.8.3,1.6.9,2.2l4.7,4.7c.6.6,1.4.9,2.2.9h24.2c.8,0,1.6-.3,2.2-.9l4.7-4.7c.6-.6.9-1.4.9-2.2V13.7c0-.8-.3-1.6-.9-2.2l-4.8-4.7Z"/>
  <path class="st0" d="M650.3,6.8c-.6-.6-1.4-.9-2.2-.9h-24.2c-.8,0-1.6.3-2.2.9l-4.6,4.6c-.6.6-.9,1.4-.9,2.2l-.2,23.4-33,87.7h-2.9l-33.3-88.9V13.7c0-.8-.3-1.6-.9-2.2l-4.7-4.7c-.6-.6-1.4-.9-2.2-.9h-24.2c-.8,0-1.6.3-2.2.9l-4.7,4.7c-.6.6-.9,1.4-.9,2.2v28.6c0,.2,0,.4,0,.6l.4,1.9c0,.2,0,.4.2.6l49.2,123c.2.5.6,1,1.1,1.3l4.3,2.7c.5.3,1.1.5,1.7.5h35.1c.6,0,1.2-.2,1.7-.5l4.2-2.7c.5-.3.9-.8,1.2-1.3l49-123c0-.2.2-.4.2-.6l.4-1.9c0-.2,0-.4,0-.6V13.7c0-.8-.3-1.6-.9-2.2l-4.7-4.7Z"/>
  <path class="st0" d="M300.9,51l16.8,29-5.8,33-25.7,21.5h-33.5l-25.7-21.5-5.8-33,16.8-29,31.5-11.5,31.4,11.5ZM182.2,80l8.2,46.3c.8,4.6,3.2,8.7,6.8,11.7l36,30.2c3.6,3,8.1,4.6,12.7,4.6h47c4.7,0,9.2-1.6,12.7-4.6l36-30.2c3.6-3,6-7.1,6.8-11.7l8.2-46.3c.8-4.6,0-9.3-2.3-13.3l-23.5-40.7c-2.3-4-6-7.1-10.4-8.7L276.2,1.2c-4.4-1.6-9.2-1.6-13.5,0l-44.2,16.1c-4.4,1.6-8,4.7-10.4,8.7l-23.5,40.7c-2.4,4-3.2,8.7-2.4,13.3Z"/>
</svg>