<svg width="251" height="42" viewBox="0 0 251 42" fill="none" xmlns="http://www.w3.org/2000/svg">
<g clip-path="url(#clip0_1092_11870)">
<rect width="251" height="42" fill="white"/>
<g clip-path="url(#clip1_1092_11870)">
<path d="M42.5585 1H29.0935C29.0935 6.51029 30.2562 11.7577 32.3556 16.5292H23.9363C18.9124 23.3146 10.6919 27.7417 1.39575 27.7417V40.7419C15.8001 40.7419 28.4754 33.5964 35.8301 22.7783C43.1847 33.5938 55.8519 40.7419 70.2562 40.7419V27.7417C54.9587 27.7417 42.5585 15.7695 42.5585 1Z" fill="#002E33"/>
<path d="M131.999 12.843C127.717 12.8226 124.156 14.2314 121.72 16.8742C119.431 19.3599 118.22 22.8235 118.22 26.8955C118.22 35.4324 123.545 40.951 131.785 40.951C140.025 40.951 145.655 35.543 145.655 26.8373C145.655 22.4597 144.258 18.8214 141.621 16.3125C139.233 14.0451 135.905 12.8459 131.996 12.8459L131.999 12.843ZM131.852 35.4324C127.234 35.4324 124.477 32.2132 124.477 26.8198C124.477 21.4264 127.234 18.3295 131.852 18.3295C136.47 18.3295 139.337 21.4468 139.337 26.881C139.337 32.3151 136.608 35.4324 131.852 35.4324Z" fill="#002E33"/>
<path d="M120.43 1H112.171L97.3444 16.3419V1H90.8005V40.3284H97.3444V25.4522L99.1936 23.5399L112.318 40.3284H120.21L103.775 19.0517L120.43 1Z" fill="#002E33"/>
<path d="M163.052 12.7822C159.849 12.7822 156.89 13.7398 154.892 15.3552V13.344H148.779V40.3255H155.002V21.6771C156.053 20.5391 158.486 18.3444 161.622 18.3444C165.583 18.3444 167.056 19.7968 167.056 23.7V40.3255H173.279V23.3042C173.279 16.2226 169.932 12.7822 163.049 12.7822H163.052Z" fill="#002E33"/>
<path d="M221.034 24.6753L216.425 23.674C213.982 23.1094 213.671 21.9451 213.671 20.9933C213.671 18.9821 215.3 17.8295 218.142 17.8295C221.333 17.8295 223.351 19.2062 224.481 20.3617L225.016 20.9089L228.788 17.1397L228.36 16.6565C227.336 15.501 224.307 12.8145 218.32 12.8145C210.81 12.8145 207.448 17.0814 207.448 21.3135C207.448 25.1992 209.985 27.9119 214.591 28.9568L219.325 30.0192C222.379 30.7498 222.791 31.8674 222.791 32.8687C222.791 35.6833 219.249 35.986 217.727 35.986C213.842 35.986 212.191 34.4637 210.712 32.7697L210.196 32.176L206.259 35.9132L206.659 36.4051C209.08 39.371 212.849 40.9399 217.552 40.9399C226.089 40.9399 229.13 36.6059 229.13 32.5485C229.13 28.4911 226.41 25.8803 221.037 24.6782L221.034 24.6753Z" fill="#002E33"/>
<path d="M248.365 34.2221L247.454 34.5917C246.305 35.0574 245.079 35.3281 244.089 35.3281C242.072 35.3281 241.173 34.3676 241.173 32.2108L241.143 19.0198H248.341V13.7458H241.143V5.93945L234.999 7.04258V13.7487L229.867 13.7632V19.0344H234.999V32.7114C234.999 37.9739 237.738 40.8758 242.714 40.8758C244.838 40.8758 246.959 40.4624 248.533 39.7406L249.007 39.5223L248.371 34.2191L248.365 34.2221Z" fill="#002E33"/>
<path d="M192.391 34.6063C191.245 35.072 190.016 35.3427 189.026 35.3427C187.009 35.3427 186.11 34.3822 186.11 32.2254V31.5211H186.08V19.0199H193.278V13.7459H186.08V5.9541L179.936 7.05723V13.7488L174.804 13.7633V19.0345H179.936V32.729C179.936 37.9914 182.675 40.8933 187.651 40.8933C189.775 40.8933 191.896 40.48 193.47 39.7582L193.944 39.5399L193.305 34.2367L192.394 34.6063H192.391Z" fill="#002E33"/>
<path d="M200.475 1C198.021 1 196.499 2.46987 196.499 4.83912C196.499 7.20838 197.988 8.57346 200.475 8.57346C202.963 8.57346 204.452 7.10941 204.452 4.83912C204.452 2.18754 202.453 1 200.475 1Z" fill="#002E33"/>
<path d="M203.587 13.3467H197.492V40.3282H203.587V13.3467Z" fill="#002E33"/>
</g>
</g>
<defs>
<clipPath id="clip0_1092_11870">
<rect width="251" height="42" fill="white"/>
</clipPath>
<clipPath id="clip1_1092_11870">
<rect width="252" height="44" fill="white" transform="translate(-3 1)"/>
</clipPath>
</defs>
</svg>
